<?xml version="1.0" encoding="UTF-8"?>
<!DOCTYPE svg PUBLIC "-//W3C//DTD SVG 1.1//EN" "http://www.w3.org/Graphics/SVG/1.1/DTD/svg11.dtd">
<!-- Creator: CorelDRAW 2019 (64-Bit) -->
<svg xmlns="http://www.w3.org/2000/svg" xml:space="preserve" width="2500mm" height="800mm" version="1.1" style="shape-rendering:geometricPrecision; text-rendering:geometricPrecision; image-rendering:optimizeQuality; fill-rule:evenodd; clip-rule:evenodd"
viewBox="0 0 249999.9 79999.97"
 xmlns:xlink="http://www.w3.org/1999/xlink"
 xmlns:xodm="http://www.corel.com/coreldraw/odm/2003">
 <defs>
  <style type="text/css">
   <![CDATA[
    .fil1 {fill:#FEFEFE}
    .fil0 {fill:#00D2D3}
    .fil2 {fill:#FEFEFE;fill-rule:nonzero}
   ]]>
  </style>
    <clipPath id="id0">
     <path d="M114028.96 56291.57l115217.21 0 0 17427.22 -115217.21 0 0 -17427.22z"/>
    </clipPath>
    <clipPath id="id1">
     <path d="M185655.52 20857.94l35897.71 0 0 37857.93 -35897.71 0 0 -37857.93z"/>
    </clipPath>
    <clipPath id="id2">
     <path d="M156121.44 21075.25l37338.08 0 0 37806.82 -37338.08 0 0 -37806.82z"/>
    </clipPath>
    <clipPath id="id3">
     <path d="M127137.77 21324.54l35177.56 0 0 37308.24 -35177.56 0 0 -37308.24z"/>
    </clipPath>
    <clipPath id="id4">
     <path d="M92179.68 20499.99l41173.29 0 0 38999.99 -41173.29 0 0 -38999.99z"/>
    </clipPath>
    <clipPath id="id5">
     <path d="M56682.52 20499.99l41173.3 0 0 38999.99 -41173.3 0 0 -38999.99z"/>
    </clipPath>
    <clipPath id="id6">
     <path d="M28913.36 21708.07l31853.68 0 0 36541.18 -31853.68 0 0 -36541.18z"/>
    </clipPath>
 </defs>
 <g id="Layer_x0020_1">
  <metadata id="CorelCorpID_0Corel-Layer"/>
  <rect class="fil0" x="-0" y="0" width="249999.9" height="79999.97"/>
  <g id="_1740328557312">
   <g style="clip-path:url(#id0)">
    <image x="114028.96" y="56291.57" width="115217.21" height="17427.22" xlink:href="BOOTRY_LOGO_Images\BOOTRY_LOGO_ImgID1.png"/>
   </g>
  </g>
  <path class="fil1" d="M114028.96 63805.73c7525.93,0 15616.31,2116.67 22718.89,-5503.33l88476.66 5503.33 0 7902.23 -111195.55 0 0 -7902.23z"/>
  <g id="_1740328519840">
   <g style="clip-path:url(#id1)">
    <image x="185655.52" y="20857.94" width="35897.71" height="37857.93" xlink:href="BOOTRY_LOGO_Images\BOOTRY_LOGO_ImgID2.png"/>
   </g>
  </g>
  <path class="fil2" d="M198064.6 54573.83l0 -1704.55c1413.35,0 2400.57,-127.83 2947.44,-376.41 326.71,-149.15 539.78,-468.75 639.21,-951.71 28.41,-142.04 92.32,-1491.47 184.66,-4055.41l21.31 -1519.87c0,-1875.01 -92.34,-3046.88 -269.89,-3515.63 -305.41,-774.15 -1377.84,-2620.74 -3210.23,-5525.57 -1832.38,-2904.83 -3231.54,-4971.59 -4204.55,-6207.39 -973,-1242.9 -1789.77,-2052.55 -2457.38,-2443.18 -234.38,-134.95 -539.78,-205.96 -916.19,-205.96l-1001.43 42.6 0 -1661.93c2301.14,-397.71 4580.97,-880.67 6825.29,-1448.85 738.64,348 1349.43,752.83 1832.39,1228.69 703.11,703.12 1683.23,2088.07 2933.24,4147.72 1257.1,2059.67 2848.01,5028.42 4794.03,8913.36l1704.54 -2919.04c1548.3,-2642.05 3593.76,-6306.82 6136.37,-10987.22l3387.78 0 0 1044.04c-731.53,873.58 -2102.27,2869.32 -4098.01,5994.32 -3132.1,4914.77 -4879.27,7791.19 -5241.47,8643.47 -220.18,539.77 -333.81,1612.21 -333.81,3224.43 0,3259.94 71.03,5561.08 205.97,6896.3 71.02,703.14 248.57,1150.57 546.87,1328.14 291.19,184.65 1363.64,298.28 3210.23,355.1l0 1704.55c-2009.95,-85.23 -4055.4,-127.84 -6136.37,-127.84 -2286.93,0 -4786.93,42.61 -7500,127.84z"/>
  <g id="_1740328532160">
   <g style="clip-path:url(#id2)">
    <image x="156121.44" y="21075.25" width="37338.08" height="37806.82" xlink:href="BOOTRY_LOGO_Images\BOOTRY_LOGO_ImgID3.png"/>
   </g>
  </g>
  <path class="fil2" d="M160429.68 54573.83l0 -1704.55c1612.22,-142.04 2528.41,-269.88 2769.88,-397.72 149.16,-85.23 262.8,-213.07 326.71,-397.73 142.05,-333.8 241.48,-1455.96 291.19,-3380.67 71.03,-2975.86 106.55,-5319.61 106.55,-7031.26 0,-2315.34 -28.42,-5248.58 -85.24,-8813.93 -56.81,-2656.24 -184.66,-4282.67 -390.62,-4886.36 -56.82,-177.56 -170.46,-319.6 -333.8,-411.93 -220.18,-142.04 -1115.07,-298.3 -2684.67,-461.65l0 -1704.55c2869.32,85.23 4723.02,127.85 5553.98,127.85l10433.24 -127.85c2258.53,0 3906.25,220.18 4943.18,653.42 1029.83,433.23 1853.7,1136.36 2457.4,2095.16 603.69,965.92 901.98,2095.17 901.98,3394.89 0,1661.93 -482.95,3117.9 -1448.86,4367.91 -958.82,1257.09 -2634.94,2365.05 -5021.31,3330.96l4417.61 6704.54 3444.61 5134.95c660.51,838.06 1150.57,1349.43 1470.17,1519.88 319.6,177.56 845.17,269.89 1569.61,284.09l0 1576.71 -1221.61 21.31c-3522.72,21.3 -5781.24,56.82 -6796.87,106.53 -1207.39,-1931.81 -3011.37,-4730.11 -5419.03,-8394.89l-4289.78 -6512.78c127.85,-234.37 227.28,-475.86 312.5,-731.53 553.97,56.8 965.92,85.21 1235.8,85.21 1292.62,0 2563.91,-518.46 3813.92,-1562.49 1257.11,-1044.03 1882.11,-2528.41 1882.11,-4460.22 0,-1683.25 -497.17,-2982.96 -1491.48,-3913.36 -994.32,-930.4 -2485.8,-1399.15 -4467.33,-1399.15 -632.11,0 -1484.38,42.62 -2563.92,127.84l-127.85 6157.68 -170.45 7812.5c0,1768.46 71.02,4026.99 205.96,6782.66 113.63,2073.87 220.18,3238.64 326.71,3487.23 85.23,184.65 234.38,326.7 454.55,440.34 291.19,170.45 1228.68,291.19 2805.39,376.41l0 1704.55c-2485.79,-85.23 -4694.6,-127.84 -6612.22,-127.84 -2052.55,0 -4247.16,42.61 -6598.01,127.84z"/>
  <g id="_1739703357296">
   <g style="clip-path:url(#id3)">
    <image x="127137.77" y="21324.54" width="35177.56" height="37308.24" xlink:href="BOOTRY_LOGO_Images\BOOTRY_LOGO_ImgID4.png"/>
   </g>
  </g>
  <path class="fil2" d="M137716.61 54573.83l0 -1704.55c781.25,0 1598.02,-71.01 2443.18,-205.96 397.73,-71.03 674.72,-184.66 845.18,-348.01 163.35,-156.25 284.08,-447.44 369.31,-880.68 92.34,-596.6 177.56,-2784.09 241.48,-6569.61 42.61,-2691.77 63.92,-5433.23 63.92,-8231.54 0,-5504.25 -14.19,-8302.55 -49.71,-8409.09 -35.52,-106.53 -525.57,-156.24 -1477.28,-156.24 -1931.81,0 -3593.75,56.81 -4992.9,170.45 -802.55,63.92 -1257.1,134.93 -1363.64,205.97 -106.52,71.01 -184.66,191.76 -241.47,369.32 -56.82,177.55 -170.46,1406.24 -355.11,3686.07l-1789.78 0c28.41,-2691.76 -42.61,-5007.1 -213.07,-6946.02l227.28 -170.46c4375,198.87 8629.26,298.3 12762.78,298.3 4119.33,0 8735.8,-99.43 13842.34,-298.3l227.27 340.91c-262.78,1924.72 -447.44,4183.24 -553.98,6775.57l-1747.16 0c-127.84,-2357.95 -248.57,-3643.47 -376.42,-3835.22 -92.33,-156.25 -312.5,-262.79 -660.51,-319.6 -1107.96,-184.66 -3309.66,-276.99 -6612.21,-276.99 -277,0 -440.34,42.6 -497.16,127.84 -56.82,92.33 -78.13,461.64 -78.13,1100.85l-127.85 13991.47c0,4055.42 35.52,6541.2 106.54,7464.5 63.92,923.29 234.37,1484.37 497.15,1676.14 184.67,127.83 1271.32,276.98 3274.17,440.33l0 1704.55c-2031.26,-85.23 -4190.35,-127.84 -6470.19,-127.84 -2997.15,0 -5426.13,42.61 -7294.03,127.84z"/>
  <g id="_1739703354800">
   <g style="clip-path:url(#id4)">
    <image x="92179.68" y="20499.99" width="41173.29" height="38999.99" xlink:href="BOOTRY_LOGO_Images\BOOTRY_LOGO_ImgID5.png"/>
   </g>
  </g>
  <path class="fil2" d="M113313.21 52741.47c2798.29,0 5028.41,-1029.83 6690.34,-3089.5 1669.03,-2059.65 2500,-5191.76 2500,-9389.2 0,-4410.52 -951.7,-7798.29 -2862.22,-10156.25 -1548.29,-1896.3 -3927.56,-2848.01 -7144.88,-2848.01 -3011.38,0 -5340.91,994.31 -6988.64,2975.84 -1654.84,1981.54 -2478.7,5035.52 -2478.7,9154.84 0,2961.66 454.55,5475.85 1356.53,7535.51 909.1,2059.67 2059.66,3544.03 3458.81,4453.13 1399.15,909.09 3224.43,1363.64 5468.76,1363.64zm-795.46 2258.52c-5120.74,0 -9041.19,-1313.92 -11761.36,-3941.76 -2720.18,-2627.85 -4076.71,-6242.91 -4076.71,-10852.27 0,-3217.33 660.51,-5951.72 1974.44,-8203.13 1321.02,-2258.53 3146.3,-3984.38 5482.95,-5191.77 2343.74,-1207.38 5348,-1811.07 9026.98,-1811.07 3536.95,0 6427.57,582.38 8678.99,1740.05 2244.31,1157.67 3977.27,2762.79 5191.77,4822.45 1214.48,2059.65 1818.17,4588.06 1818.17,7585.23 0,3245.73 -667.61,6051.14 -1995.74,8416.19 -1335.22,2365.06 -3210.22,4197.43 -5632.1,5490.05 -2421.87,1299.72 -5326.7,1946.03 -8707.39,1946.03z"/>
  <g id="_1740265127088">
   <g style="clip-path:url(#id5)">
    <image x="56682.52" y="20499.99" width="41173.3" height="38999.99" xlink:href="BOOTRY_LOGO_Images\BOOTRY_LOGO_ImgID6.png"/>
   </g>
  </g>
  <path class="fil2" d="M77816.05 52741.47c2798.3,0 5028.41,-1029.83 6690.34,-3089.5 1669.04,-2059.65 2500,-5191.76 2500,-9389.2 0,-4410.52 -951.7,-7798.29 -2862.22,-10156.25 -1548.3,-1896.3 -3927.56,-2848.01 -7144.89,-2848.01 -3011.36,0 -5340.9,994.31 -6988.63,2975.84 -1654.83,1981.54 -2478.7,5035.52 -2478.7,9154.84 0,2961.66 454.55,5475.85 1356.54,7535.51 909.09,2059.67 2059.65,3544.03 3458.81,4453.13 1399.15,909.09 3224.43,1363.64 5468.75,1363.64zm-795.46 2258.52c-5120.74,0 -9041.19,-1313.92 -11761.36,-3941.76 -2720.17,-2627.85 -4076.71,-6242.91 -4076.71,-10852.27 0,-3217.33 660.51,-5951.72 1974.44,-8203.13 1321.02,-2258.53 3146.3,-3984.38 5482.95,-5191.77 2343.74,-1207.38 5348.01,-1811.07 9026.99,-1811.07 3536.94,0 6427.56,582.38 8678.98,1740.05 2244.32,1157.67 3977.26,2762.79 5191.77,4822.45 1214.48,2059.65 1818.18,4588.06 1818.18,7585.23 0,3245.73 -667.62,6051.14 -1995.75,8416.19 -1335.22,2365.06 -3210.22,4197.43 -5632.1,5490.05 -2421.87,1299.72 -5326.7,1946.03 -8707.39,1946.03z"/>
  <g id="_1740265130992">
   <g style="clip-path:url(#id6)">
    <image x="28913.36" y="21708.07" width="31853.68" height="36541.18" xlink:href="BOOTRY_LOGO_Images\BOOTRY_LOGO_ImgID7.png"/>
   </g>
  </g>
  <path class="fil2" d="M42347.3 52230.1c802.55,198.87 1562.49,298.29 2272.73,298.29 1967.33,0 3487.22,-568.18 4538.35,-1697.43 1058.24,-1136.37 1583.82,-2798.3 1583.82,-5000 0,-1427.56 -241.49,-2599.44 -717.34,-3515.63 -482.95,-909.09 -1143.46,-1583.81 -1981.54,-2031.25 -838.06,-447.45 -2038.36,-667.62 -3593.75,-667.62l-2102.27 21.31 0 539.78 -42.61 5411.92 42.61 5468.76 0 1171.87zm-42.61 -14872.17l1086.64 0c2343.75,0 3991.48,-426.14 4943.19,-1271.31 951.71,-852.27 1427.55,-2180.4 1427.55,-3984.38 0,-1583.81 -383.52,-2755.68 -1157.67,-3501.42 -774.14,-752.84 -2045.45,-1129.26 -3813.91,-1129.26 -653.42,0 -1455.98,56.82 -2400.58,170.46 -71.02,4268.47 -106.53,6882.1 -106.53,7840.91l21.31 1875zm-7968.75 17215.91l0 -980.12c788.34,-475.84 1384.94,-901.98 1796.87,-1292.61 163.36,-1917.62 248.58,-6150.57 248.58,-12713.07 0,-4751.41 -71.01,-8110.79 -205.97,-10085.22 -71.02,-1065.34 -213.06,-1690.35 -433.23,-1875 -305.41,-277 -1356.54,-454.55 -3153.41,-539.78l0 -1704.55 3984.38 71.03 3053.97 56.82c930.41,0 2294.03,-21.31 4112.23,-63.92 1754.25,-42.62 3018.46,-63.93 3778.4,-63.93 3068.18,0 5269.89,511.37 6598.01,1534.1 1328.12,1029.83 1995.74,2428.97 1995.74,4204.54 0,1825.29 -653.41,3323.86 -1967.33,4474.43 -1313.92,1157.68 -3167.61,1981.54 -5561.08,2478.71l0 170.44c2464.48,248.58 4190.34,625 5191.76,1129.27 994.32,497.16 1796.88,1278.4 2400.57,2336.64 610.8,1058.24 916.2,2258.53 916.2,3615.06 0,1654.83 -504.27,3217.33 -1505.7,4694.61 -1001.41,1477.26 -2329.53,2606.53 -3984.37,3380.68 -1654.82,781.24 -3984.37,1171.87 -6988.63,1171.87 -596.59,0 -1484.38,-21.3 -2677.55,-63.92 -1107.96,-42.61 -2017.06,-63.92 -2720.18,-63.92 -788.36,0 -2414.77,42.61 -4879.26,127.84z"/>
 </g>
</svg>
